<?xml version="1.0" encoding="iso-8859-1"?>
<!-- Generator: Adobe Illustrator 19.0.0, SVG Export Plug-In . SVG Version: 6.00 Build 0)  -->
<svg version="1.1" id="Capa_1" xmlns="http://www.w3.org/2000/svg" xmlns:xlink="http://www.w3.org/1999/xlink" x="0px" y="0px"
	 viewBox="0 0 371.229 371.229" style="enable-background:new 0 0 371.229 371.229;" xml:space="preserve">
<g id="XMLID_1099_">
	<g id="XMLID_1100_">
		<g id="XMLID_1101_">
			<path id="XMLID_1102_" style="fill:#6DA8D6;" d="M178.115,356.229c-60.93,0-110.5-67.799-110.5-128.729v-117
				c0-60.93,49.57-110.5,110.5-110.5s110.5,49.57,110.5,110.5v117C288.615,288.43,239.044,356.229,178.115,356.229z M178.115,50
				c-33.359,0-60.5,27.14-60.5,60.5v117c0,33.36,27.141,60.5,60.5,60.5s60.5-27.14,60.5-60.5v-117
				C238.615,77.14,211.474,50,178.115,50z"/>
		</g>
		<path id="XMLID_1107_" style="fill:#2974A8;" d="M178.115,0v50c33.359,0,60.5,27.14,60.5,60.5v117c0,33.36-27.141,60.5-60.5,60.5
			v68.229c60.93,0,110.5-67.799,110.5-128.729v-117C288.615,49.57,239.044,0,178.115,0z"/>
	</g>
	<g id="XMLID_1108_">
		<rect id="XMLID_42_" x="43.115" y="149.357" style="fill:#F9E375;" width="270" height="221.872"/>
		<rect id="XMLID_1112_" x="178.115" y="149.357" style="fill:#F5D361;" width="135" height="221.872"/>
	</g>
	<rect id="XMLID_35_" x="278.115" y="191.229" style="fill:#2974A8;" width="50" height="40"/>
	<rect id="XMLID_34_" x="278.115" y="251.229" style="fill:#6DA8D6;" width="50" height="40"/>
	<rect id="XMLID_3_" x="278.115" y="311.229" style="fill:#2974A8;" width="50" height="40"/>
</g>
<g>
</g>
<g>
</g>
<g>
</g>
<g>
</g>
<g>
</g>
<g>
</g>
<g>
</g>
<g>
</g>
<g>
</g>
<g>
</g>
<g>
</g>
<g>
</g>
<g>
</g>
<g>
</g>
<g>
</g>
</svg>
